#N canvas 733 254 220 112 12;
#N canvas 130 130 450 363 increment 0;
#X obj 106 242 s plus;
#X obj 106 193 + 1;
#X obj 106 169 float;
#X floatatom 106 218 5 0 0 0 - - - 0;
#X obj 104 101 image plus.png 1;
#X obj 142 101 image trash.png 1;
#X msg 180 144 0;
#X connect 1 0 3 0;
#X connect 2 0 1 0;
#X connect 3 0 2 1;
#X connect 3 0 0 0;
#X connect 4 0 2 0;
#X connect 5 0 6 0;
#X connect 6 0 2 1;
#X connect 6 0 3 0;
#X coords 0 -1 1 1 71 30 2 100 100;
#X restore 75 33 pd increment;
#X floatatom 75 63 10 0 0 0 - plus - 0;
