#N canvas 1007 418 819 442 12;
#X obj 17 13 inlet~;
#X obj 18 140 *~;
#X floatatom 224 168 4 0 0 2 dB - - 0;
#X obj 312 128 rmstodb;
#X obj 51 330 dac~;
#X obj 36 109 line~;
#X msg 36 79 \$1 10;
#X obj 311 153 int;
#X obj 365 98 f;
#X obj 236 104 bng 19 250 50 0 empty empty empty 0 -10 0 12 #fcfcfc #000000 #000000;
#X obj 365 172 line;
#X msg 219 29 \; pd dsp 1;
#X obj 365 198 expr $f1 * (1- (log(($f2+1)/($f1+1))));
#X msg 365 134 \$1 \, 0 500;
#X obj 67 13 inlet~;
#X obj 187 176 hsl 30 10 -1 1 0 0 empty \$0-pan empty -2 -10 0 12 #fcfcfc #000000 #000000 0 1;
#X floatatom 184 192 5 0 0 0 - - - 0;
#X obj 51 286 *~;
#X obj 239 291 *~;
#X obj 78 138 *~;
#X obj 96 107 line~;
#X msg 96 77 \$1 10;
#X obj 188 158 bng 13 250 50 0 empty empty empty 0 -10 0 12 #fcfcfc #000000 #000000;
#X obj 138 35 loadbang;
#X msg 145 158 0;
#X obj 108 235 expr sqrt(0.5 * (1 - $f1));
#X obj 108 212 expr if ($f1<-1 \, -1 \, $f1);
#X obj 306 246 expr if ($f1>1 \, 1 \, $f1);
#X obj 306 274 expr sqrt(0.5 * (1 + $f1));
#X obj 108 294 line~;
#X msg 108 264 \$1 10;
#X obj 306 334 line~;
#X msg 306 304 \$1 10;
#X obj 480 40 t f;
#X floatatom 481 8 5 0 1 0 - - - 0;
#X obj 187 104 knob empty empty 35 1 0 0 255 255 255;
#X obj 264 106 vu 8 80 empty empty -1 -8 0 8 #404040 #000000 0 0;
#N canvas 329 161 625 417 vu 0;
#X obj 59 129 env~ 1024;
#X obj 161 111 abs~;
#X obj 161 213 snapshot~;
#X obj 161 256 rmstodb;
#X obj 161 21 inlet~;
#X obj 161 288 - 100;
#X obj 59 287 - 100;
#X obj 59 361 outlet;
#X obj 161 361 outlet;
#X text 344 307 Check the help file of env~ and slop~ for more details., f 31;
#X obj 239 89 expr 1000 / $f1;
#X floatatom 239 117 5 0 0 0 - - - 0;
#X obj 161 146 slop~ 0 0 0 0 1e+09;
#X obj 239 18 inlet;
#X floatatom 239 57 5 0 0 0 - - - 0;
#X text 359 89 convert to hz;
#X text 282 118 hz;
#X text 284 57 peak decay time in ms;
#X obj 59 171 t f b;
#X text 345 132 The env~ object is dedicated to RMS analysis. Its output is in dB (0-100 range \, pd style) but needs to be converted to dBFS (and we do that by simply subtracting 100)., f 31;
#X text 345 225 The slop~ object is used here for peak detection. We need to convert the output to dB with rmstodb and also subtract by 100 to convert it to dBFS., f 31;
#X connect 0 0 18 0;
#X connect 1 0 12 0;
#X connect 2 0 3 0;
#X connect 3 0 5 0;
#X connect 4 0 0 0;
#X connect 4 0 1 0;
#X connect 5 0 8 0;
#X connect 6 0 7 0;
#X connect 10 0 11 0;
#X connect 11 0 12 3;
#X connect 12 0 2 0;
#X connect 13 0 14 0;
#X connect 14 0 10 0;
#X connect 18 0 6 0;
#X connect 18 1 2 0;
#X restore 678 197 pd vu;
#X obj 294 198 - 100;
#N canvas 329 161 625 417 vu 0;
#X obj 59 129 env~ 1024;
#X obj 161 111 abs~;
#X obj 161 213 snapshot~;
#X obj 161 256 rmstodb;
#X obj 161 21 inlet~;
#X obj 161 288 - 100;
#X obj 59 287 - 100;
#X obj 59 361 outlet;
#X obj 161 361 outlet;
#X text 344 307 Check the help file of env~ and slop~ for more details., f 31;
#X obj 239 89 expr 1000 / $f1;
#X floatatom 239 117 5 0 0 0 - - - 0;
#X obj 161 146 slop~ 0 0 0 0 1e+09;
#X obj 239 18 inlet;
#X floatatom 239 57 5 0 0 0 - - - 0;
#X text 359 89 convert to hz;
#X text 282 118 hz;
#X text 284 57 peak decay time in ms;
#X obj 59 171 t f b;
#X text 345 132 The env~ object is dedicated to RMS analysis. Its output is in dB (0-100 range \, pd style) but needs to be converted to dBFS (and we do that by simply subtracting 100)., f 31;
#X text 345 225 The slop~ object is used here for peak detection. We need to convert the output to dB with rmstodb and also subtract by 100 to convert it to dBFS., f 31;
#X connect 0 0 18 0;
#X connect 1 0 12 0;
#X connect 2 0 3 0;
#X connect 3 0 5 0;
#X connect 4 0 0 0;
#X connect 4 0 1 0;
#X connect 5 0 8 0;
#X connect 6 0 7 0;
#X connect 10 0 11 0;
#X connect 11 0 12 3;
#X connect 12 0 2 0;
#X connect 13 0 14 0;
#X connect 14 0 10 0;
#X connect 18 0 6 0;
#X connect 18 1 2 0;
#X restore 721 198 pd vu;
#X obj 276 106 vu 8 80 empty empty -1 -8 0 8 #404040 #000000 0 0;
#X obj 187 137 cnv 12 40 18 empty empty Volume 0 7 0 10 #ffffff #000000 0;
#X connect 0 0 1 0;
#X connect 1 0 17 0;
#X connect 3 0 7 0;
#X connect 5 0 1 1;
#X connect 6 0 5 0;
#X connect 7 0 38 0;
#X connect 8 0 13 0;
#X connect 8 0 12 1;
#X connect 9 0 8 0;
#X connect 10 0 12 0;
#X connect 12 0 34 0;
#X connect 12 0 35 0;
#X connect 13 0 10 0;
#X connect 14 0 19 0;
#X connect 15 0 16 0;
#X connect 16 0 26 0;
#X connect 16 0 27 0;
#X connect 17 0 4 0;
#X connect 17 0 37 0;
#X connect 18 0 4 1;
#X connect 18 0 39 0;
#X connect 19 0 18 0;
#X connect 20 0 19 1;
#X connect 21 0 20 0;
#X connect 22 0 24 0;
#X connect 23 0 24 0;
#X connect 24 0 15 0;
#X connect 25 0 30 0;
#X connect 26 0 25 0;
#X connect 27 0 28 0;
#X connect 28 0 32 0;
#X connect 29 0 17 1;
#X connect 30 0 29 0;
#X connect 31 0 18 1;
#X connect 32 0 31 0;
#X connect 33 0 8 1;
#X connect 33 0 3 0;
#X connect 33 0 21 0;
#X connect 33 0 6 0;
#X connect 33 0 11 0;
#X connect 34 0 33 0;
#X connect 35 0 34 0;
#X connect 37 0 36 0;
#X connect 37 1 36 1;
#X connect 38 0 2 0;
#X connect 39 0 40 0;
#X connect 39 1 40 1;
#X coords 0 -1 1 1 110 90 2 180 100;
