#N canvas 733 36 452 547 12;
#X obj 36 232 bng 19 250 50 0 empty empty empty 0 -10 0 12 #fcfcfc #000000 #000000;
#X obj 36 361 bng 19 250 50 0 empty empty empty 0 -10 0 12 #fcfcfc #000000 #000000;
#X obj 117 390 bng 19 250 50 0 empty empty empty 0 -10 0 12 #fcfcfc #000000 #000000;
#X obj 205 316 banger 2 500;
#X obj 286 344 banger 1 1000;
#N canvas 104 104 532 504 karplus 0;
#X obj 311 167 inlet;
#X obj 392 178 inlet;
#X obj 124 187 *~;
#X obj 239 330 delread~ myDelay;
#X obj 176 183 vline~;
#X obj 239 388 *~ 0.99;
#X obj 239 359 lop~ 5000;
#X obj 239 417 delwrite~ myDelay 1000;
#X obj 310 265 t b f;
#X obj 310 221 + 1;
#X floatatom 346 317 5 0 0 0 - - - 0;
#X obj 124 159 lop~;
#X floatatom 149 60 5 0 0 0 - - - 0;
#X obj 51 213 loadbang;
#X msg 51 250 1000;
#X msg 346 293 2000;
#X obj 177 124 f;
#X msg 176 154 1 0 0 \, 0 1 \$1;
#X floatatom 221 110 5 0 0 0 - - - 0;
#X msg 147 107 5;
#X obj 392 231 + 9;
#X obj 124 133 noise~;
#X obj 311 193 random 20;
#X obj 392 205 random 20;
#X obj 61 344 outlet~;
#X obj 129 346 outlet~;
#X connect 0 0 22 0;
#X connect 1 0 23 0;
#X connect 2 0 7 0;
#X connect 2 0 24 0;
#X connect 2 0 25 0;
#X connect 3 0 6 0;
#X connect 4 0 2 1;
#X connect 5 0 7 0;
#X connect 6 0 5 0;
#X connect 6 0 24 0;
#X connect 6 0 25 0;
#X connect 8 0 16 0;
#X connect 8 1 3 0;
#X connect 9 0 8 0;
#X connect 10 0 6 1;
#X connect 11 0 2 0;
#X connect 12 0 11 1;
#X connect 13 0 15 0;
#X connect 13 0 19 0;
#X connect 13 0 14 0;
#X connect 14 0 12 0;
#X connect 15 0 10 0;
#X connect 16 0 17 0;
#X connect 17 0 4 0;
#X connect 18 0 16 1;
#X connect 19 0 18 0;
#X connect 20 0 8 0;
#X connect 21 0 11 0;
#X connect 22 0 9 0;
#X connect 23 0 20 0;
#X restore 36 390 pd karplus;
#X obj 37 430 dac~;
#X obj 374 373 s dc;
#X obj 36 205 r dc;
#X text 64 231 <- Play;
#X obj 36 259 banger 3 333;
#X obj 117 288 banger 1 1000;
#X obj 224 96 bng 19 250 50 0 empty empty empty 0 -10 0 12 #fcfcfc #000000 #000000;
#X obj 224 204 + 1;
#X floatatom 224 235 4 0 0 0 - - - 0;
#X obj 224 179 int;
#X obj 224 124 t b 0;
#X obj 224 153 banger 10 200;
#X msg 159 417 \; pd dsp \$1;
#X obj 159 390 tgl 19 0 empty empty empty 0 -10 0 12 #fcfcfc #000000 #000000 0 1;
#X obj 312 184 bng 19 250 50 0 empty empty empty 0 -10 0 12 #fcfcfc #000000 #000000;
#X obj 312 292 + 1;
#X floatatom 312 318 5 0 0 0 - - - 0;
#X obj 312 267 int;
#X obj 312 212 t b 0;
#X obj 312 241 banger 10 50;
#X text 10 3 banger — Limited bangs at a rate.;
#X text 18 497 dmj © 2024;
#X text 10 23 Arguments: \; - number of bangs \; - rate in milliseconds;
#X connect 0 0 10 0;
#X connect 1 0 5 0;
#X connect 2 0 5 1;
#X connect 3 0 2 0;
#X connect 3 1 4 0;
#X connect 4 0 1 0;
#X connect 4 1 7 0;
#X connect 5 0 6 0;
#X connect 5 1 6 1;
#X connect 8 0 0 0;
#X connect 10 0 1 0;
#X connect 10 1 11 0;
#X connect 11 0 2 0;
#X connect 11 1 3 0;
#X connect 12 0 16 0;
#X connect 13 0 14 0;
#X connect 14 0 15 1;
#X connect 15 0 13 0;
#X connect 16 0 17 0;
#X connect 16 1 15 1;
#X connect 17 0 15 0;
#X connect 17 1 20 0;
#X connect 19 0 18 0;
#X connect 20 0 24 0;
#X connect 21 0 22 0;
#X connect 22 0 23 1;
#X connect 23 0 21 0;
#X connect 24 0 25 0;
#X connect 24 1 23 1;
#X connect 25 0 23 0;
