#N canvas 797 198 526 541 12;
#X obj 93 291 binaural~, f 37;
#X obj 92 161 noise~;
#X obj 110 216 vline~;
#X obj 93 249 *~;
#X obj 155 119 loadbang;
#X floatatom 350 246 5 0 0 1 Distance - - 0;
#X text 178 213 Azimuth;
#X floatatom 271 245 5 0 0 2 Elevation - - 0;
#X obj 271 268 sig~;
#X obj 350 269 sig~;
#X obj 350 194 loadbang;
#X msg 350 220 1;
#X msg 110 188 1 20 \, 0 20 40;
#X obj 350 125 loadbang;
#X msg 350 149 500;
#X obj 350 173 s decay;
#X msg 252 198 0;
#X obj 155 143 tgl 19 0 empty empty empty 0 -10 0 12 #fcfcfc #000000 #000000 0 1;
#X obj 155 165 metro 100;
#X obj 178 228 phasor~ 0.2;
#N canvas 156 156 450 300 vu 0;
#X obj 24 60 vu 15 80 empty empty -1 -8 0 8 #404040 #000000 0 0;
#N canvas 329 161 625 417 vu 0;
#X obj 59 129 env~ 1024;
#X obj 161 111 abs~;
#X obj 161 213 snapshot~;
#X obj 161 256 rmstodb;
#X obj 161 21 inlet~;
#X obj 161 288 - 100;
#X obj 59 287 - 100;
#X obj 59 361 outlet;
#X obj 161 361 outlet;
#X text 344 307 Check the help file of env~ and slop~ for more details., f 31;
#X obj 239 89 expr 1000 / $f1;
#X floatatom 239 117 5 0 0 0 - - - 0;
#X obj 161 146 slop~ 0 0 0 0 1e+09;
#X obj 239 18 inlet;
#X floatatom 239 57 5 0 0 0 - - - 0;
#X text 359 89 convert to hz;
#X text 282 118 hz;
#X text 284 57 peak decay time in ms;
#X obj 59 171 t f b;
#X text 345 132 The env~ object is dedicated to RMS analysis. Its output is in dB (0-100 range \, pd style) but needs to be converted to dBFS (and we do that by simply subtracting 100)., f 31;
#X text 345 225 The slop~ object is used here for peak detection. We need to convert the output to dB with rmstodb and also subtract by 100 to convert it to dBFS., f 31;
#X connect 0 0 18 0;
#X connect 1 0 12 0;
#X connect 2 0 3 0;
#X connect 3 0 5 0;
#X connect 4 0 0 0;
#X connect 4 0 1 0;
#X connect 5 0 8 0;
#X connect 6 0 7 0;
#X connect 10 0 11 0;
#X connect 11 0 12 3;
#X connect 12 0 2 0;
#X connect 13 0 14 0;
#X connect 14 0 10 0;
#X connect 18 0 6 0;
#X connect 18 1 2 0;
#X restore 23 25 pd vu;
#X obj 42 60 vu 15 80 empty empty -1 -8 0 8 #404040 #000000 1 0;
#N canvas 329 161 625 417 vu 0;
#X obj 59 129 env~ 1024;
#X obj 161 111 abs~;
#X obj 161 213 snapshot~;
#X obj 161 256 rmstodb;
#X obj 161 21 inlet~;
#X obj 161 288 - 100;
#X obj 59 287 - 100;
#X obj 59 361 outlet;
#X obj 161 361 outlet;
#X text 344 307 Check the help file of env~ and slop~ for more details., f 31;
#X obj 239 89 expr 1000 / $f1;
#X floatatom 239 117 5 0 0 0 - - - 0;
#X obj 161 146 slop~ 0 0 0 0 1e+09;
#X obj 239 18 inlet;
#X floatatom 239 57 5 0 0 0 - - - 0;
#X text 359 89 convert to hz;
#X text 282 118 hz;
#X text 284 57 peak decay time in ms;
#X obj 59 171 t f b;
#X text 345 132 The env~ object is dedicated to RMS analysis. Its output is in dB (0-100 range \, pd style) but needs to be converted to dBFS (and we do that by simply subtracting 100)., f 31;
#X text 345 225 The slop~ object is used here for peak detection. We need to convert the output to dB with rmstodb and also subtract by 100 to convert it to dBFS., f 31;
#X connect 0 0 18 0;
#X connect 1 0 12 0;
#X connect 2 0 3 0;
#X connect 3 0 5 0;
#X connect 4 0 0 0;
#X connect 4 0 1 0;
#X connect 5 0 8 0;
#X connect 6 0 7 0;
#X connect 10 0 11 0;
#X connect 11 0 12 3;
#X connect 12 0 2 0;
#X connect 13 0 14 0;
#X connect 14 0 10 0;
#X connect 18 0 6 0;
#X connect 18 1 2 0;
#X restore 68 25 pd vu;
#X obj 116 24 r decay;
#X obj 23 2 inlet~;
#X obj 69 2 inlet~;
#X connect 1 0 0 0;
#X connect 1 1 0 1;
#X connect 3 0 2 0;
#X connect 3 1 2 1;
#X connect 4 0 3 1;
#X connect 4 0 1 1;
#X connect 5 0 1 0;
#X connect 6 0 3 0;
#X coords 0 -1 1 1 85 100 2 10 50;
#X restore 94 338 pd vu;
#X text 10 7 binaural~ - Simple signal driven algorithmic binaural panner \; #1 inlet: signal \; #2 inlet: azimuth (0 to 1) \; #3 inlet: elevation: (-1 to 1) \; #4 inlet: distance (0 - ), f 63;
#X text 18 497 dmj © 2024;
#X connect 0 0 20 0;
#X connect 0 1 20 1;
#X connect 1 0 3 0;
#X connect 2 0 3 1;
#X connect 3 0 0 0;
#X connect 4 0 17 0;
#X connect 5 0 9 0;
#X connect 7 0 8 0;
#X connect 8 0 0 2;
#X connect 9 0 0 3;
#X connect 10 0 11 0;
#X connect 11 0 5 0;
#X connect 12 0 2 0;
#X connect 13 0 14 0;
#X connect 14 0 15 0;
#X connect 16 0 19 1;
#X connect 17 0 18 0;
#X connect 18 0 12 0;
#X connect 19 0 0 1;
