#N canvas 1108 244 664 482 12;
#X msg 302 51 \; ratio 1 \; thresh 0 \; attack 0 \; release 0 \; knee 0 \; makeup 1, f 12;
#X floatatom 146 273 5 0 0 2 Thresh thresh - 0;
#X floatatom 197 273 5 0 0 2 Attack attack - 0;
#X floatatom 248 273 5 0 0 2 Release release - 0;
#X floatatom 350 273 5 0 0 2 Make-Up makeup - 0;
#X obj 43 169 bng 20 250 50 0 empty empty empty 17 7 0 10 #ffffff #000000 #000000;
#N canvas 956 224 462 280 load-samples 0;
#X obj 31 107 openpanel;
#X obj 31 76 bng 15 250 50 0 empty empty empty 17 7 0 10 #fcfcfc #000000 #000000;
#X obj 31 190 readsf~;
#X msg 31 165 open \$1 \, start;
#X obj 31 140 symbol;
#X obj 31 19 inlet;
#X obj 117 29 loadbang;
#X obj 32 221 throw~ audio;
#X msg 117 95 ./sounds/drum-loop.wav -reseze;
#X connect 0 0 4 0;
#X connect 1 0 0 0;
#X connect 2 0 7 0;
#X connect 2 1 4 0;
#X connect 3 0 2 0;
#X connect 4 0 3 0;
#X connect 5 0 1 0;
#X connect 6 0 8 0;
#X connect 8 0 4 0;
#X restore 43 195 pd load-samples;
#X floatatom 95 273 5 1 16 2 Ratio ratio - 0;
#X floatatom 299 273 5 0 0 2 Knee knee - 0;
#X obj 45 297 compressor~, f 44;
#N canvas 182 182 232 135 messages 0;
#X msg 24 37 \; ratio 1 \; thresh 0 \; attack 0 \; release 0 \; knee 0 \; makeup 1, f 12;
#X obj 24 12 loadbang;
#X connect 1 0 0 0;
#X restore 43 226 pd messages;
#N canvas 487 244 159 100 p 0;
#X obj 12 10 catch~ audio;
#X obj 12 40 outlet~;
#X connect 0 0 1 0;
#X restore 46 273 pd p;
#X text 31 26 compressor~ — Classic Dynamic Range Compressor;
#X text 31 54 Arguments are: \; - Ratio (-dB) \; - Threshold \; - Attack (ms) \; - Release (ms) \; - Knee (-dB) \; - Make-Up Gain (dB);
#N canvas 156 156 195 259 meter 0;
#X obj 35 131 dbtorms;
#X floatatom 34 35 5 0 0 0 - - - 0;
#X floatatom 35 163 5 0 0 0 - - nPos 0;
#X obj 34 58 - 120;
#X floatatom 34 82 5 0 0 0 - - - 0;
#X obj 35 104 abs;
#X obj 34 7 r gainRed;
#X obj 103 161 + 1;
#X obj 103 137 * -1;
#X obj 103 185 s led;
#X connect 0 0 2 0;
#X connect 0 0 8 0;
#X connect 1 0 3 0;
#X connect 3 0 4 0;
#X connect 4 0 5 0;
#X connect 5 0 0 0;
#X connect 6 0 1 0;
#X connect 7 0 9 0;
#X connect 8 0 7 0;
#X coords 0 259 1 258 85 50 0;
#X restore 349 349 pd meter;
#X floatatom 350 325 5 0 0 0 - - gainRed 0;
#X obj 274 326 hdial empty nPos 80 0 0 0 255 255 255;
#X obj 44 336 out~;
#X msg 189 51 \; ratio 4 \; thresh -65 \; attack 10 \; release 50 \; knee -10 \; makeup 25, f 12;
#X text 17 451 dmj © 2024;
#X text 176 417 Based on the article "Digital Dynamic Range Compressor Design \; A Tutorial and Analysis" \; by DIMITRIOS GIANNOULIS, f 63;
#X connect 1 0 9 2;
#X connect 2 0 9 3;
#X connect 3 0 9 4;
#X connect 4 0 9 6;
#X connect 5 0 6 0;
#X connect 7 0 9 1;
#X connect 8 0 9 5;
#X connect 9 0 17 0;
#X connect 9 0 17 1;
#X connect 9 1 15 0;
#X connect 11 0 9 0;
#X coords 0 482 1 481 540 960 0;
