#N canvas 1104 387 515 477 12;
#X obj 25 109 bng 15 250 50 0 empty empty sample1 17 7 0 10 #ffffff #000000 #000000;
#X obj 127 111 bng 15 250 50 0 empty empty sample2 17 7 0 10 #ffffff #000000 #000000;
#N canvas 893 222 762 429 load-samples 0;
#X obj 72 118 openpanel;
#X obj 72 87 bng 15 250 50 0 empty empty empty 17 7 0 10 #fcfcfc #000000 #000000;
#X obj 72 231 readsf~;
#X obj 289 149 openpanel;
#X obj 289 118 bng 15 250 50 0 empty empty empty 17 7 0 10 #fcfcfc #000000 #000000;
#X obj 289 260 readsf~;
#X msg 289 235 open \$1 \, start;
#X obj 289 210 symbol;
#X obj 72 59 inlet;
#X obj 289 62 inlet;
#X obj 119 10 loadbang;
#X obj 73 258 outlet~;
#X obj 288 296 outlet~;
#X obj 72 170 symbol;
#X msg 72 202 open \$1 \, start;
#X msg 119 86 ../../sounds/VoiceMale.wav;
#X msg 360 148 ../../sounds/FemaleSing.wav -resize;
#X connect 0 0 13 0;
#X connect 1 0 0 0;
#X connect 2 0 11 0;
#X connect 2 1 13 0;
#X connect 3 0 7 0;
#X connect 4 0 3 0;
#X connect 5 0 12 0;
#X connect 5 1 7 0;
#X connect 6 0 5 0;
#X connect 7 0 6 0;
#X connect 8 0 1 0;
#X connect 9 0 4 0;
#X connect 10 0 16 0;
#X connect 10 0 15 0;
#X connect 13 0 14 0;
#X connect 14 0 2 0;
#X connect 15 0 13 0;
#X connect 16 0 7 0;
#X restore 25 135 pd load-samples;
#X obj 229 134 hsl 162 19 0 1 0 0 empty empty empty -2 -10 0 12 #fcfcfc #ff0400 #000000 0 1;
#X msg 226 108 0.5;
#N canvas 240 269 313 281 convolution 0;
#X obj 25 196 outlet~;
#X obj 105 85 inlet;
#X obj 23 17 inlet~;
#X obj 65 48 inlet~;
#X obj 188 24 block~ 2048 4;
#X obj 24 119 convolution~;
#X connect 1 0 5 2;
#X connect 2 0 5 0;
#X connect 3 0 5 1;
#X connect 5 0 0 0;
#X restore 26 167 pd convolution;
#X f 29;
#X obj 226 85 loadbang;
#X text 21 42 convolution~ should be inside a subpatch with its own block~;
#X text 20 5 convolution~ - Not your typical convolution of two signals \; more of a spctral cross-modulation. Window is hanning.;
#X text 27 365 dmj @ 2024;
#X obj 26 232 out~;
#X obj 53 73 osc~ 500;
#X floatatom 243 167 5 0 0 0 - - - 0;
#X connect 0 0 2 0;
#X connect 1 0 2 1;
#X connect 2 0 5 0;
#X connect 2 1 5 1;
#X connect 3 0 5 2;
#X connect 3 0 12 0;
#X connect 4 0 3 0;
#X connect 5 0 10 0;
#X connect 5 0 10 1;
#X connect 6 0 4 0;
