#N canvas 821 125 502 278 12;
#X obj 22 55 fader fader empty 80 0 0 0 200 200 200;
#X obj 62 69 knob knob empty 40 0 0 0 255 255 255;
#X msg 280 60 resize 50;
#X obj 254 59 bng 19 250 50 0 empty empty Info 0 -10 0 12 #fcfcfc #000000 #000000;
#X text 250 153 To load an image call: image path \; Example: image ../images/play.png;
#X text 356 59 Resize is % <= 100;
#X text 253 14 Image (can be a button);
#X obj 16 209 r fader;
#X floatatom 16 233 5 0 0 0 - - - 0;
#X floatatom 62 114 5 0 0 0 - - - 0;
#X obj 122 73 hdial empty vumeter 80 0 0 0 255 255 255;
#X text 121 14 hdial;
#X text 67 14 knob;
#X text 18 14 fader;
#N canvas 208 208 450 300 guts 0;
#X obj 127 106 random 1000;
#X obj 127 130 / 1000;
#X obj 127 51 tgl 19 0 empty empty empty 0 -10 0 12 #fcfcfc #000000 #000000 0 1;
#X obj 127 185 vline~;
#X obj 127 209 snapshot~;
#X floatatom 133 230 5 0 0 0 - - vumeter 0;
#X obj 54 186 metro 1;
#X obj 127 82 metro 200;
#X msg 127 158 \$1 150 \, 0 50 200;
#X obj 76 20 loadbang;
#X msg 76 44 1;
#X msg 40 75 \; pd dsp 1;
#X connect 0 0 1 0;
#X connect 1 0 8 0;
#X connect 2 0 6 0;
#X connect 2 0 7 0;
#X connect 3 0 4 0;
#X connect 4 0 5 0;
#X connect 6 0 4 0;
#X connect 7 0 0 0;
#X connect 8 0 3 0;
#X connect 9 0 10 0;
#X connect 9 0 11 0;
#X connect 10 0 2 0;
#X restore 424 242 pd guts;
#X obj 213 72 led empty vumeter 20 255 0 0;
#X text 205 14 led;
#X obj 254 133 bng 19 250 50 0 empty empty empty 0 -10 0 12 #fcfcfc #000000 #000000;
#X obj 254 88 image ./images/play.png 1;
#X connect 1 0 9 0;
#X connect 3 0 18 0;
#X connect 7 0 8 0;
#X connect 18 0 17 0;
