#N canvas 10 72 200 200 10;
#N canvas 268 162 371 165 META 0;
#X text 12 11 NAME dmj;
#X text 11 92 AUTHOR Martin Jaroszewicz;
#X text 10 114 LICENSE TCL/TK;
#X text 11 70 VERSION 0.1;
#X text 11 34 DESCRIPTION collection of Pd object classes written by
Martin Jaroszewicz;
#X restore 10 10 pd META;
