#N canvas 647 20 515 441 12;
#X declare -lib Gem;
#X obj 131 164 hsl 128 15 0 1 0 0 empty empty Trajectory -2 -8 0 10 #fcfcfc #000000 #000000 0 1;
#X obj 158 194 hsl 128 15 0 1 0 0 empty xAxis X\ axis -2 -8 0 10 #fcfcfc #000000 #000000 0 1;
#X obj 212 252 hsl 128 15 0 1 0 0 empty zAxis Z\ axis -2 -8 0 10 #fcfcfc #000000 #000000 0 1;
#X text 7 1 elliptic - Generate 3D cooridnates that descibe an ellipse;
#X obj 185 222 hsl 128 15 0 1 0 0 empty yAxis Y\ axis -2 -8 0 10 #fcfcfc #000000 #000000 0 1;
#X msg 83 217 reset;
#X obj 111 127 snapshot~;
#X obj 83 74 metro 20;
#X obj 83 50 tgl 19 0 empty empty empty 0 -10 0 12 #fcfcfc #000000 #000000 0 1;
#X msg 256 92 \; pd dsp 1;
#X obj 256 64 loadbang;
#X obj 299 27 declare -lib Gem;
#X floatatom 33 161 5 0 0 0 - - - 0;
#X msg 33 191 scale \$1;
#X obj 111 103 phasor~ 0.2;
#X msg 330 84 \; xAxis 0.9 \; yAxis 0.75 \; zAxis 1;
#X obj 330 61 loadbang;
#X obj 110 273 cnv 19 150 100 empty empty empty 20 12 0 12 #c7c6ff #404040 0;
#X obj 128 289 elliptic, f 12;
#X floatatom 128 331 5 0 0 3 X - tx 0;
#X floatatom 168 331 5 0 0 3 Y - ty 0;
#X floatatom 209 331 5 0 0 3 Z - tz 0;
#X obj 365 233 cnv 19 100 150 empty empty empty 20 12 0 12 #ffe3c6 #404040 0;
#X obj 369 323 gemwin;
#X msg 383 286 0 \, destroy;
#X msg 369 250 create \, 1;
#N canvas 208 208 366 202 gem 0;
#X obj 104 50 r ty;
#X obj 67 50 r tx;
#X obj 141 50 r tz;
#X obj 36 84 translateXYZ, f 14;
#X obj 36 25 gemhead;
#X obj 36 139 sphere 1, f 16;
#X msg 258 74 draw line;
#X obj 186 50 loadbang;
#X msg 186 74 0.5;
#X msg 221 74 15;
#X connect 0 0 3 2;
#X connect 1 0 3 1;
#X connect 2 0 3 3;
#X connect 3 0 5 0;
#X connect 4 0 3 0;
#X connect 6 0 5 0;
#X connect 7 0 8 0;
#X connect 7 0 9 0;
#X connect 7 0 6 0;
#X connect 8 0 5 1;
#X connect 9 0 5 2;
#X restore 369 349 pd gem;
#X text 18 396 dmj © 2024;
#X connect 0 0 18 0;
#X connect 1 0 18 1;
#X connect 2 0 18 3;
#X connect 4 0 18 2;
#X connect 5 0 18 0;
#X connect 6 0 0 0;
#X connect 7 0 6 0;
#X connect 8 0 7 0;
#X connect 10 0 9 0;
#X connect 12 0 13 0;
#X connect 13 0 18 0;
#X connect 14 0 6 0;
#X connect 16 0 15 0;
#X connect 18 0 19 0;
#X connect 18 1 20 0;
#X connect 18 2 21 0;
#X connect 24 0 23 0;
#X connect 25 0 23 0;
