#N canvas 1097 313 576 505 12;
#X obj 265 140 bng 19 250 50 0 empty empty empty 0 -10 0 12 #fcfcfc #000000 #000000;
#X obj 141 255 euclid;
#X obj 95 184 bng 19 250 50 0 empty empty empty 0 -10 0 12 #fcfcfc #000000 #000000;
#X obj 265 230 clone -do polyEuclid 2;
#X obj 264 259 snake~ out;
#X text 12 48 Onsets: Number of onsets.;
#X text 11 78 Time: Time \, in seconds \, between each beat of the pattern;
#X text 13 66 Beats: Number of beats in the generated pattern (max = 64);
#X msg 154 182 stop;
#X obj 448 159 hradio 19 1 0 2 empty empty empty 0 -10 0 12 #fcfcfc #000000 #000000 0;
#N canvas 234 234 450 300 circle 0;
#X obj 144 103 bng 19 250 50 0 empty empty empty 0 -10 0 12 #fcfcfc #000000 #000000;
#X obj 169 119 bng 19 250 50 0 empty empty empty 0 -10 0 12 #fcfcfc #000000 #000000;
#X obj 184 145 bng 19 250 50 0 empty empty empty 0 -10 0 12 #fcfcfc #000000 #000000;
#X obj 170 170 bng 19 250 50 0 empty empty empty 0 -10 0 12 #fcfcfc #000000 #000000;
#X obj 143 183 bng 19 250 50 0 empty empty empty 0 -10 0 12 #fcfcfc #000000 #000000;
#X obj 115 170 bng 19 250 50 0 empty empty empty 0 -10 0 12 #fcfcfc #000000 #000000;
#X obj 102 145 bng 19 250 50 0 empty empty empty 0 -10 0 12 #fcfcfc #000000 #000000;
#X obj 115 119 bng 19 250 50 0 empty empty empty 0 -10 0 12 #fcfcfc #000000 #000000;
#X obj 96 7 inlet;
#X obj 96 38 route 1 2 3 4 5 6 7 8;
#X obj 271 5 inlet;
#X obj 271 29 - 1;
#X obj 100 205 hradio 13 1 0 8 empty empty empty 0 -10 0 12 #fcfcfc #000000 #000000 0;
#X connect 8 0 9 0;
#X connect 9 0 0 0;
#X connect 9 1 1 0;
#X connect 9 2 2 0;
#X connect 9 3 3 0;
#X connect 9 4 4 0;
#X connect 9 5 5 0;
#X connect 9 6 6 0;
#X connect 9 7 7 0;
#X connect 10 0 11 0;
#X connect 11 0 12 0;
#X coords 0 -1 1 1 105 120 2 100 100;
#X restore 142 349 pd circle;
#X text 13 93 New loaded sequence waits for a bang to start;
#X floatatom 160 285 5 0 0 0 - - - 0;
#X obj 141 284 tgl 19 0 empty empty empty 0 -10 0 12 #fcfcfc #000000 #000000 0 1;
#X obj 142 314 spigot;
#X text 10 19 This object generates euclidean trigger patterns \, resulting in onsets in the rhythm to be as equidistant as possible.;
#X obj 79 284 select 1;
#X obj 79 308 bng 19 250 50 0 empty empty empty 0 -10 0 12 #fcfcfc #000000 #000000;
#X text 11 0 Euclidean rhythm generator. Message [onsets \, beats \, time], f 63;
#X msg 354 177 1 4 4 0.5;
#X text 19 128 1 Send pattern;
#X text 20 146 2 Bang to start;
#X msg 141 128 3 8 0.25;
#X msg 265 176 0 3 8 0.3;
#X obj 266 332 dac~;
#X obj 265 298 *~ 0.1;
#X obj 332 298 *~ 0.1;
#X msg 448 190 \$1 stop;
#X text 15 470 dmj © 2024;
#X connect 0 0 23 0;
#X connect 0 0 19 0;
#X connect 1 0 13 0;
#X connect 1 0 16 0;
#X connect 1 1 12 0;
#X connect 2 0 1 0;
#X connect 3 0 4 0;
#X connect 4 0 25 0;
#X connect 4 1 26 0;
#X connect 8 0 1 0;
#X connect 9 0 27 0;
#X connect 12 0 14 0;
#X connect 12 0 10 1;
#X connect 13 0 14 1;
#X connect 14 0 10 0;
#X connect 16 0 17 0;
#X connect 19 0 3 0;
#X connect 22 0 1 0;
#X connect 23 0 3 0;
#X connect 25 0 24 0;
#X connect 26 0 24 1;
#X connect 27 0 3 1;
