#N canvas 789 293 457 347 12;
#X obj 32 137 bng 20 250 50 0 empty empty empty 17 7 0 10 #ffffff #000000 #000000;
#N canvas 674 224 497 280 load-samples 0;
#X obj 85 106 openpanel;
#X obj 85 75 bng 15 250 50 0 empty empty empty 17 7 0 10 #fcfcfc #000000 #000000;
#X obj 85 189 readsf~;
#X obj 85 139 symbol;
#X obj 85 18 inlet;
#X obj 85 222 outlet~;
#X obj 139 25 loadbang;
#X msg 85 164 open \$1 -resize \, start;
#X msg 139 53 ../../sounds/VoiceMale.wav;
#X connect 0 0 3 0;
#X connect 1 0 0 0;
#X connect 2 0 5 0;
#X connect 2 1 3 0;
#X connect 3 0 7 0;
#X connect 4 0 1 0;
#X connect 6 0 8 0;
#X connect 7 0 2 0;
#X connect 8 0 3 0;
#X restore 32 163 pd load-samples;
#X floatatom 77 204 5 0 0 2 Size size - 0;
#X floatatom 121 204 5 0 0 2 Density density - 0;
#N canvas 998 572 526 244 preset 0;
#X msg 40 158 \; size 2000 \; density 1;
#X obj 40 104 loadbang;
#X floatatom 256 49 5 0 0 0 - - - 0;
#X obj 256 25 r preset;
#X obj 256 81 select 0 1 2 3 4;
#X msg 125 158 \; size 100 \; density 100;
#X msg 217 158 \; size 300 \; density 60;
#X msg 316 158 \; size 1 \; density 500;
#X msg 408 158 \; size 100 \; density 10;
#X connect 1 0 0 0;
#X connect 2 0 4 0;
#X connect 3 0 2 0;
#X connect 4 0 0 0;
#X connect 4 1 5 0;
#X connect 4 2 6 0;
#X connect 4 3 7 0;
#X connect 4 4 8 0;
#X restore 239 61 pd preset;
#X obj 63 137 hradio 19 1 0 5 preset empty Presets 0 -10 0 12 #fcfcfc #000000 #000000 0;
#N canvas 725 266 1015 594 record 0;
#X obj 163 202 *~;
#X obj 7 63 vsl 20 120 0 1 0 0 empty empty empty 0 -9 0 10 #ffffff #ff8300 #000000 0 1;
#X obj 203 0 loadbang;
#X msg 203 22 0.75;
#X msg 558 162 start;
#X msg 545 193 stop;
#X obj 331 34 t b b b;
#X obj 531 115 del 1000;
#X obj 87 60 bng 16 250 50 0 empty empty Start -12 -8 0 10 #ff0400 #000000 #000000;
#X obj 88 95 bng 16 250 50 0 empty empty Stop -12 -8 0 10 #00ff04 #000000 #000000;
#X obj 263 203 *~;
#X obj 531 137 t b b;
#X obj 280 91 line~ 0 \, 1 50;
#X msg 280 64 0 \, 1 50;
#X msg 206 67 1 \, 0 50;
#X obj 458 177 del 50;
#X obj 160 105 t b b;
#X obj 162 151 catch~ grain;
#X obj 264 248 writesf~ 1, f 15;
#X obj 163 228 dac~;
#X text 4 11 Record;
#X floatatom 55 11 5 0 0 1 sec. - - 0;
#X text 36 231 comment;
#X msg 152 9 0;
#X obj 129 48 t b b;
#X msg 450 268 1;
#X obj 530 264 tgl 19 0 empty empty empty 17 7 0 10 #dfdfdf #000000 #000000 0 1;
#X obj 562 354 sel 1;
#X floatatom 562 439 5 0 0 0 - - - 0;
#X obj 530 303 t f f;
#X obj 562 383 bng 19 250 50 0 empty empty empty 17 7 0 10 #dfdfdf #000000 #000000;
#X obj 664 383 bng 19 250 50 0 empty empty empty 17 7 0 10 #dfdfdf #000000 #000000;
#X msg 483 233 0;
#X obj 562 412 timer 60 permin;
#X obj 664 354 metro 1 60 permin;
#X msg 519 89 open -bytes 4 c:/tmp/granular.wav;
#X obj 29 64 vu 8 120 empty empty -1 -10 0 12 #404040 #000000 1 0;
#N canvas 329 161 625 417 vu 0;
#X obj 59 129 env~ 1024;
#X obj 161 111 abs~;
#X obj 161 213 snapshot~;
#X obj 161 256 rmstodb;
#X obj 161 21 inlet~;
#X obj 161 288 - 100;
#X obj 59 287 - 100;
#X obj 59 361 outlet;
#X obj 161 361 outlet;
#X text 344 307 Check the help file of env~ and slop~ for more details., f 31;
#X obj 239 89 expr 1000 / $f1;
#X floatatom 239 117 5 0 0 0 - - - 0;
#X obj 161 146 slop~ 0 0 0 0 1e+09;
#X obj 239 18 inlet;
#X floatatom 239 57 5 0 0 0 - - - 0;
#X text 359 89 convert to hz;
#X text 282 118 hz;
#X text 284 57 peak decay time in ms;
#X obj 59 171 t f b;
#X text 345 132 The env~ object is dedicated to RMS analysis. Its output is in dB (0-100 range \, pd style) but needs to be converted to dBFS (and we do that by simply subtracting 100)., f 31;
#X text 345 225 The slop~ object is used here for peak detection. We need to convert the output to dB with rmstodb and also subtract by 100 to convert it to dBFS., f 31;
#X connect 0 0 18 0;
#X connect 1 0 12 0;
#X connect 2 0 3 0;
#X connect 3 0 5 0;
#X connect 4 0 0 0;
#X connect 4 0 1 0;
#X connect 5 0 8 0;
#X connect 6 0 7 0;
#X connect 10 0 11 0;
#X connect 11 0 12 3;
#X connect 12 0 2 0;
#X connect 13 0 14 0;
#X connect 14 0 10 0;
#X connect 18 0 6 0;
#X connect 18 1 2 0;
#X restore 65 283 pd vu;
#X connect 0 0 19 0;
#X connect 0 0 19 1;
#X connect 0 0 37 0;
#X connect 1 0 0 1;
#X connect 2 0 3 0;
#X connect 2 0 23 0;
#X connect 3 0 1 0;
#X connect 4 0 18 0;
#X connect 5 0 18 0;
#X connect 5 0 32 0;
#X connect 6 1 7 0;
#X connect 6 2 35 0;
#X connect 7 0 11 0;
#X connect 8 0 24 0;
#X connect 8 0 6 0;
#X connect 9 0 16 0;
#X connect 9 0 23 0;
#X connect 10 0 18 0;
#X connect 11 0 13 0;
#X connect 11 1 4 0;
#X connect 12 0 10 1;
#X connect 13 0 12 0;
#X connect 14 0 12 0;
#X connect 15 0 5 0;
#X connect 16 0 15 0;
#X connect 16 1 14 0;
#X connect 17 0 0 0;
#X connect 17 0 10 0;
#X connect 23 0 21 0;
#X connect 24 0 25 0;
#X connect 24 1 23 0;
#X connect 25 0 26 0;
#X connect 26 0 29 0;
#X connect 27 0 30 0;
#X connect 28 0 21 0;
#X connect 29 0 34 0;
#X connect 29 1 27 0;
#X connect 30 0 33 0;
#X connect 31 0 33 1;
#X connect 32 0 26 0;
#X connect 33 0 28 0;
#X connect 34 0 31 0;
#X connect 35 0 18 0;
#X connect 37 0 36 0;
#X coords 0 -1 1 1 120 200 2 0 0;
#X restore 205 120 pd record;
#X obj 33 269 throw~ grain;
#X text 14 9 A simple real time granular engine. Creation argument is buffer size in seconds \, with a maximun size of 10s.;
#X obj 33 245 granular~ 10, f 13;
#X text 14 43 1st inlet: signal \; 2nd inlet: grain size \; 3rd inlet: grains density;
#X text 24 313 dmj @ 2024;
#X connect 0 0 1 0;
#X connect 1 0 9 0;
#X connect 2 0 9 1;
#X connect 3 0 9 2;
#X connect 9 0 7 0;
#X coords 0 347 1 346 85 60 0;
