#N struct bar float x float y float a float b float c float d float e float f;
#N canvas 677 103 587 482 12;
#X obj 69 205 martbox, f 57;
#X obj 69 153 bng 19 250 50 0 empty empty empty 0 -10 0 12 #fcfcfc #000000 #000000;
#X floatatom 69 233 5 0 0 0 - - - 0;
#X obj 177 153 tgl 19 0 empty empty empty 0 -10 0 12 #fcfcfc #000000 #000000 0 1;
#X msg 99 153 set COM6;
#X floatatom 148 233 5 0 0 0 - - - 0;
#X floatatom 227 233 5 0 0 0 - - - 0;
#X floatatom 306 233 5 0 0 0 - - - 0;
#X floatatom 385 233 5 0 0 0 - - - 0;
#X floatatom 465 233 5 0 0 0 - - - 0;
#X obj 214 153 tgl 19 0 empty empty empty 0 -10 0 12 #fcfcfc #000000 #000000 0 1;
#X obj 69 350 graphbar_main;
#X obj 69 318 pack f f f f f f, f 56;
#X obj 148 259 clip 0.2 1;
#X obj 69 259 clip 0.2 1;
#X obj 306 258 clip 0.2 1;
#X obj 227 258 clip 0.2 1;
#X obj 465 257 clip 0.2 1;
#X obj 385 257 clip 0.2 1;
#N canvas 52 52 720 209 convert_to_signal 0;
#X obj 20 17 inlet;
#X obj 18 123 snapshot~;
#X obj 20 48 sig~;
#X obj 19 96 lop~, f 6;
#X floatatom 58 72 5 0 0 0 - - - 0;
#X obj 58 48 r lopfreq;
#X obj 18 147 outlet;
#X obj 72 97 r tick;
#X obj 137 15 inlet;
#X obj 135 121 snapshot~;
#X obj 137 46 sig~;
#X obj 136 94 lop~, f 6;
#X floatatom 175 70 5 0 0 0 - - - 0;
#X obj 175 46 r lopfreq;
#X obj 135 145 outlet;
#X obj 189 95 r tick;
#X obj 253 15 inlet;
#X obj 251 121 snapshot~;
#X obj 253 46 sig~;
#X obj 252 94 lop~, f 6;
#X floatatom 291 70 5 0 0 0 - - - 0;
#X obj 291 46 r lopfreq;
#X obj 251 145 outlet;
#X obj 305 95 r tick;
#X obj 366 14 inlet;
#X obj 364 120 snapshot~;
#X obj 366 45 sig~;
#X obj 365 93 lop~, f 6;
#X floatatom 404 69 5 0 0 0 - - - 0;
#X obj 404 45 r lopfreq;
#X obj 364 144 outlet;
#X obj 418 94 r tick;
#X obj 483 12 inlet;
#X obj 481 118 snapshot~;
#X obj 483 43 sig~;
#X obj 482 91 lop~, f 6;
#X floatatom 521 67 5 0 0 0 - - - 0;
#X obj 521 43 r lopfreq;
#X obj 481 142 outlet;
#X obj 535 92 r tick;
#X obj 599 12 inlet;
#X obj 597 118 snapshot~;
#X obj 599 43 sig~;
#X obj 598 91 lop~, f 6;
#X floatatom 637 67 5 0 0 0 - - - 0;
#X obj 637 43 r lopfreq;
#X obj 597 142 outlet;
#X obj 651 92 r tick;
#X connect 0 0 2 0;
#X connect 1 0 6 0;
#X connect 2 0 3 0;
#X connect 3 0 1 0;
#X connect 4 0 3 1;
#X connect 5 0 4 0;
#X connect 7 0 1 0;
#X connect 8 0 10 0;
#X connect 9 0 14 0;
#X connect 10 0 11 0;
#X connect 11 0 9 0;
#X connect 12 0 11 1;
#X connect 13 0 12 0;
#X connect 15 0 9 0;
#X connect 16 0 18 0;
#X connect 17 0 22 0;
#X connect 18 0 19 0;
#X connect 19 0 17 0;
#X connect 20 0 19 1;
#X connect 21 0 20 0;
#X connect 23 0 17 0;
#X connect 24 0 26 0;
#X connect 25 0 30 0;
#X connect 26 0 27 0;
#X connect 27 0 25 0;
#X connect 28 0 27 1;
#X connect 29 0 28 0;
#X connect 31 0 25 0;
#X connect 32 0 34 0;
#X connect 33 0 38 0;
#X connect 34 0 35 0;
#X connect 35 0 33 0;
#X connect 36 0 35 1;
#X connect 37 0 36 0;
#X connect 39 0 33 0;
#X connect 40 0 42 0;
#X connect 41 0 46 0;
#X connect 42 0 43 0;
#X connect 43 0 41 0;
#X connect 44 0 43 1;
#X connect 45 0 44 0;
#X connect 47 0 41 0;
#X restore 69 287 pd convert_to_signal;
#X f 57;
#X text 70 427 dmj © 2024;
#X text 22 16 martbox - Reads the analog inputs of an Arduino;
#X text 19 44 1 Bang to see a list of available ports \; 2 set the port where the Arduiono is connected \; 3 Start \; 4 Poll;
#X text 66 132 1 -> 2 -> 3 -> 4;
#X obj 214 174 metro 10;
#X connect 0 0 2 0;
#X connect 0 1 5 0;
#X connect 0 2 6 0;
#X connect 0 3 7 0;
#X connect 0 4 8 0;
#X connect 0 5 9 0;
#X connect 1 0 0 0;
#X connect 2 0 14 0;
#X connect 3 0 0 0;
#X connect 4 0 0 0;
#X connect 5 0 13 0;
#X connect 6 0 16 0;
#X connect 7 0 15 0;
#X connect 8 0 18 0;
#X connect 9 0 17 0;
#X connect 10 0 24 0;
#X connect 12 0 11 0;
#X connect 13 0 19 1;
#X connect 14 0 19 0;
#X connect 15 0 19 3;
#X connect 16 0 19 2;
#X connect 17 0 19 5;
#X connect 18 0 19 4;
#X connect 19 0 12 0;
#X connect 19 1 12 1;
#X connect 19 2 12 2;
#X connect 19 3 12 3;
#X connect 19 5 12 5;
#X connect 24 0 0 0;
