#N canvas 1122 309 472 386 12;
#X floatatom 69 319 5 0 0 0 - - - 0;
#X floatatom 83 299 5 0 0 0 - - - 0;
#X floatatom 97 279 5 0 0 0 - - - 0;
#X floatatom 112 259 5 0 0 0 - - - 0;
#X floatatom 126 239 5 0 0 0 - - - 0;
#X floatatom 140 218 5 0 0 0 - - - 0;
#X floatatom 155 197 5 0 0 0 - - - 0;
#X floatatom 169 176 5 0 0 0 - - - 0;
#X floatatom 183 155 5 0 0 0 - - - 0;
#X floatatom 227 93 5 0 0 0 - - - 0;
#X floatatom 212 114 5 0 0 0 - - - 0;
#X floatatom 198 134 5 0 0 0 - - - 0;
#X obj 69 60 midicc 0 11 channel 1, f 23;
#X text 12 349 dmj © 2024;
#X text 16 9 Receives MIDI Control Change Messages (MIDI CC);
#X text 13 28 in a given range and channel.;
#X connect 12 0 0 0;
#X connect 12 1 1 0;
#X connect 12 2 2 0;
#X connect 12 3 3 0;
#X connect 12 4 4 0;
#X connect 12 5 5 0;
#X connect 12 6 6 0;
#X connect 12 7 7 0;
#X connect 12 8 8 0;
#X connect 12 9 11 0;
#X connect 12 10 10 0;
#X connect 12 11 9 0;
