#N canvas 932 213 679 412 12;
#X obj 353 295 dac~;
#X msg 409 270 \; pd dsp 1;
#X obj 152 261 ritmo, f 10;
#X obj 152 236 text sequence text-ritmo;
#X obj 406 11 text define -k text-ritmo;
#A set 120 ( 1/8 1/8 1/8 1/8 ) 1 \; 96 ( 1/4 -3/8 3/8 3/8 1/8 1/8 1/4 ) 2 \; 120 ( 1/4 3/16 3/16 3/16 1/8 1/4 ) 2 \; 60 ( 1/4 1/4 1/4 1/4) 1 \; 60 ( ( 5/8 5/8 5/8 5/8 5/8 ) 1/4 1/8 1/8 1/4) 1 \;;
#X msg 198 200 line 0;
#X msg 152 200 step;
#X obj 317 260 bng 19 250 50 0 empty empty empty 0 -10 0 12 #fcfcfc #000000 #000000;
#X obj 449 166 bng 35 250 50 0 empty empty empty 0 -10 0 12 #ffffff #0f4710 #000000;
#X obj 353 232 *~;
#X obj 152 171 t b b, f 7;
#X obj 152 288 s rit;
#X obj 449 137 r rit;
#X obj 219 289 s step;
#X obj 101 199 r step;
#X obj 152 119 bng 35 250 50 0 empty empty empty 0 -10 0 12 #ffffff #0f4710 #000000;
#X obj 354 269 *~ 0.1;
#X msg 449 206 1 10 \, 0 10 20;
#X obj 449 231 vline~;
#X obj 354 198 osc~ 500;
#X text 130 94 Start here;
#X text 7 6 ritmo- Rhythmic sequences with abstract notation;
#X text 28 361 dmj © 2024;
#X text 476 274 <- Turn on dsp;
#X obj 277 117 ritmo;
#X obj 277 146 bng 19 250 50 0 empty empty empty 0 -10 0 12 #fcfcfc #000000 #000000;
#X obj 309 146 bng 19 250 50 0 empty empty empty 0 -10 0 12 #fcfcfc #000000 #000000;
#X msg 277 85 60 ( 1/4 1/8 1/8 ) 2;
#X text 13 76 1/2 \; 1/4 \; 1/8 \; 1/16 \; 1/32 \; 1/64 \; 3/8 \; 3/16 \; 5/8 \; 5/16;
#X text 11 24 Message is: bpm sequence repeats \; negative numbers are rests \; Possible values are:;
#X connect 2 0 11 0;
#X connect 2 1 13 0;
#X connect 3 0 2 0;
#X connect 3 1 7 0;
#X connect 5 0 3 0;
#X connect 6 0 3 0;
#X connect 8 0 17 0;
#X connect 9 0 16 0;
#X connect 10 0 6 0;
#X connect 10 1 5 0;
#X connect 12 0 8 0;
#X connect 14 0 6 0;
#X connect 15 0 10 0;
#X connect 16 0 0 0;
#X connect 16 0 0 1;
#X connect 17 0 18 0;
#X connect 18 0 9 1;
#X connect 19 0 9 0;
#X connect 24 0 25 0;
#X connect 24 1 26 0;
#X connect 27 0 24 0;
